# xmcd
#
# Track frame offsets:
#	150
#	13087
#	26947
#	40107
#	53236
#	66066
#	78599
#	89939
#	102914
#	116321
#	128756
#	140120
#	152645
#	165895
#	177358
#	190151
#	202299
#	216453
#	227804
#	239921
#
# Disc length: 3365 seconds
#
# Revision: 1
# Processed by: cddbd v1.5.2PL0 Copyright (c) Steve Scherf et al.
# Submitted via: audiograbber 1.83.01
#
DISCID=2a0d2314
DTITLE=Various Artist - HUMOTOWN 2
DYEAR=2009
DGENRE=Motown
TTITLE0=The Supremes - Stop! In The Name Of Love
TTITLE1=Jr. Walker and The All Stars - Shotgun
TTITLE2=The Four Tops - Reach Out
TTITLE3=Jimmy Ruffin - What Becomes Of The Broken Hearted
TTITLE4=Smokey Robinson and The Miracles - The Tracks Of My Tears
TTITLE5=The Four Tops - It's The Same Old Song
TTITLE6=The Velvelettes - He Was Really Sayin' Somethin'
TTITLE7=Stevie Wonder - Uptight (Everything's Allright)
TTITLE8=Marving Gaye and Kim Weston - It Takes Two
TTITLE9=The Isley Brothers - This Old Heart of Mine (Is Weak For You)
TTITLE10=The Elgins - Heaven Must Have Sent You
TTITLE11=Jr. Walker and The All Stars - (I'm A) Road Runner
TTITLE12=Martha Reeves and The Vandellas
TTITLE13=The Tempations - Ain't Too Proud To Beg
TTITLE14=The Miracles - Going To A Go-Go
TTITLE15=The Supremes - You Keep Me Hangin' On
TTITLE16=The Marvelettes - The Hunter Gets Captured By The Game
TTITLE17=Smokey Robinson and The Miracles - (Come 'Round Here) I'm The One You Ne
TTITLE17=ed
TTITLE18=The Four Tops - I Can't Help Myself (Sugar Pie, Honey Bunch)
TTITLE19=The Supremes - You Can't Hurry Love
EXTD=
EXTT0=
EXTT1=
EXTT2=
EXTT3=
EXTT4=
EXTT5=
EXTT6=
EXTT7=
EXTT8=
EXTT9=
EXTT10=
EXTT11=
EXTT12=
EXTT13=
EXTT14=
EXTT15=
EXTT16=
EXTT17=
EXTT18=
EXTT19=
PLAYORDER=
